<svg width="70" height="71" viewBox="0 0 70 71" fill="none" xmlns="http://www.w3.org/2000/svg">
<path d="M69.35 35.5C69.35 54.7558 53.9623 70.35 35 70.35C16.0377 70.35 0.65 54.7558 0.65 35.5C0.65 16.2442 16.0377 0.65 35 0.65C53.9623 0.65 69.35 16.2442 69.35 35.5Z" stroke="#0C0B0B" stroke-width="1.3"/>
<path d="M26.3497 36.2101L37.9804 24.3791C38.3825 23.97 38.3825 23.3068 37.9804 22.8978C37.5782 22.4888 36.9263 22.4888 36.5242 22.8978L24.1653 35.4694C23.7633 35.8785 23.7633 36.5417 24.1653 36.9507L36.5242 49.5224C36.9333 49.9243 37.5853 49.9128 37.9804 49.4966C38.3659 49.0906 38.3659 48.447 37.9804 48.041L26.3497 36.2101Z" fill="#0C0B0B"/>
</svg>
