<svg width="100" height="109" viewBox="0 0 100 109" fill="none" xmlns="http://www.w3.org/2000/svg">
<g clip-path="url(#clip0)">
<path d="M70.4519 57.0308C75.9148 59.9958 80.9145 64.1856 85.9419 67.8454C88.1243 69.4334 90.2973 71.0442 92.4676 72.6415C94.0156 73.7819 96.3291 74.9732 96.7108 77.1074C97.3859 80.9317 91.2387 84.033 88.8413 85.9424C84.126 89.7037 79.3663 93.4178 74.569 97.0834C72.0666 98.9927 68.8043 95.3112 71.3161 93.414C74.9281 90.683 78.5214 87.9277 82.0959 85.1482C83.7983 83.8243 85.4912 82.4882 87.1775 81.1535C88.259 80.2954 91.8769 78.1927 92.1749 76.8048C92.2117 77.4129 92.2552 78.0197 92.2933 78.6345C91.3265 76.4766 87.5101 74.5486 85.6785 73.1078C83.7301 71.5713 81.7938 70.0254 79.8562 68.4728C76.0898 65.4579 72.0097 62.5891 68.6556 59.1147C67.4897 57.8915 69.1507 56.324 70.4519 57.0308Z" fill="#DE1717"/>
<path d="M95.5391 77.2274C91.802 79.8574 86.3088 80.1224 81.8835 80.6231C76.5203 81.226 71.1172 81.4871 65.7255 81.3474C55.4196 81.078 44.9838 79.5546 35.1192 76.5052C26.9301 73.9694 18.5791 69.9482 12.8928 63.356C7.11791 56.6696 5.24724 47.9843 7.19029 39.4164C9.70469 28.3712 17.5744 19.3263 25.4302 11.5499C27.7327 9.26765 30.8066 12.9515 28.7113 15.2556C20.9755 23.7774 12.1886 32.6408 11.4119 44.8306C10.7056 55.8946 18.545 63.8567 27.8328 68.4753C37.8425 73.454 49.3969 75.4687 60.4295 76.51C66.2309 77.058 72.084 77.1971 77.9121 76.9984C81.0791 76.8874 84.2274 76.6122 87.3826 76.3007C90.0157 76.0368 92.7272 75.5686 95.3267 76.1576C95.7665 76.2592 95.9081 76.9724 95.5391 77.2274Z" fill="#DE1717"/>
</g>
<defs>
<clipPath id="clip0">
<rect width="94.1623" height="82.9948" fill="white" transform="matrix(0.194678 0.980867 0.980867 -0.194678 0 16.1572)"/>
</clipPath>
</defs>
</svg>
