<svg width="71" height="71" viewBox="0 0 71 71" fill="none" xmlns="http://www.w3.org/2000/svg">
<circle cx="35.0141" cy="35.0141" r="34.0141" stroke="white" stroke-width="2"/>
<path d="M51.0724 39.7273C50.5497 39.7273 50.1261 40.151 50.1261 40.6737V49.0767C50.1242 50.6442 48.8543 51.9144 47.2869 51.9159H20.732C19.1645 51.9144 17.8946 50.6442 17.8928 49.0767V24.4146C17.8946 22.8475 19.1645 21.5773 20.732 21.5754H29.1349C29.6577 21.5754 30.0813 21.1517 30.0813 20.629C30.0813 20.1066 29.6577 19.6826 29.1349 19.6826H20.732C18.1198 19.6856 16.003 21.8024 16 24.4146V49.0771C16.003 51.6893 18.1198 53.8061 20.732 53.809H47.2869C49.8991 53.8061 52.0159 51.6893 52.0188 49.0771V40.6737C52.0188 40.151 51.5952 39.7273 51.0724 39.7273Z" fill="white"/>
<path d="M51.6436 17.2474C49.9804 15.5842 47.2839 15.5842 45.6207 17.2474L28.7364 34.1317C28.6207 34.2474 28.5371 34.3908 28.4935 34.5483L26.2732 42.5642C26.1819 42.8929 26.2747 43.2448 26.5157 43.4862C26.7571 43.7273 27.109 43.8201 27.4377 43.7291L35.4536 41.5084C35.6111 41.4648 35.7545 41.3812 35.8702 41.2655L52.7541 24.3809C54.4148 22.7165 54.4148 20.0223 52.7541 18.3579L51.6436 17.2474ZM30.7985 34.7469L44.617 20.928L49.0735 25.3846L35.2547 39.2034L30.7985 34.7469ZM29.9083 36.5332L33.4687 40.094L28.5438 41.4585L29.9083 36.5332ZM51.4159 23.0426L50.4122 24.0463L45.9552 19.5894L46.9593 18.5857C47.8832 17.6618 49.3811 17.6618 50.305 18.5857L51.4159 19.6962C52.3382 20.6212 52.3382 22.118 51.4159 23.0426Z" fill="white"/>
</svg>
