<svg width="71" height="71" viewBox="0 0 71 71" fill="none" xmlns="http://www.w3.org/2000/svg">
<circle cx="35.0141" cy="35.0141" r="34.0141" stroke="white" stroke-width="2"/>
<path d="M33.8621 45.1955C33.6019 45.4555 33.6019 45.8777 33.8621 46.1382C34.1228 46.3984 34.5448 46.3984 34.8047 46.1382C35.0654 45.8777 35.0654 45.4555 34.8047 45.1955C34.5448 44.9348 34.1228 44.9348 33.8621 45.1955Z" fill="white"/>
<path d="M52.3695 43.952L46.8771 39.2866C46.8517 39.2652 46.8248 39.2454 46.7969 39.2276C45.3559 38.3113 43.5058 38.5143 42.2978 39.7208L39.3032 42.7119C39.0958 42.9194 38.7863 42.9806 38.5151 42.8688C35.1336 41.4715 32.3558 39.3679 30.2587 36.617C28.6595 34.5193 28.083 32.8524 28.007 32.6176C27.998 32.5673 27.9836 32.5174 27.9632 32.4685C27.851 32.1975 27.9124 31.889 28.1203 31.6818L31.1146 28.6898C32.3227 27.483 32.5256 25.6349 31.6083 24.1955C31.601 24.1839 31.5933 24.1727 31.5854 24.1614L27.619 18.6553C26.3711 16.7214 23.6529 16.4292 22.0215 18.0586L21.4219 18.6576C21.4216 18.6582 21.421 18.6587 21.4205 18.659L19.2796 20.7976C16.7267 23.3481 16.309 27.1804 18.0721 31.8811C19.5822 35.9076 22.6053 40.3144 26.5845 44.2893C30.6577 48.3582 35.1884 51.434 39.3419 52.9502C43.453 54.4505 47.826 54.6354 50.9212 51.5433L52.9403 49.5266C54.5644 47.904 54.2809 45.2065 52.3695 43.952ZM45.9807 40.422L51.4683 45.0834C51.4935 45.1048 51.5203 45.1246 51.5483 45.1424C52.7205 45.8879 52.8979 47.5252 51.9171 48.5047L51.7673 48.6546L42.4077 41.6544L43.3207 40.7426C44.0343 40.0296 45.1217 39.9006 45.9807 40.422ZM26.4104 19.4494C26.4177 19.461 26.4254 19.4726 26.4333 19.4836L30.398 24.9876C30.9366 25.8489 30.812 26.9484 30.0917 27.6679L29.2069 28.5521L22.8747 19.2501L23.0445 19.0805C24.0293 18.0967 25.6669 18.2827 26.4104 19.4494ZM39.8381 51.5927C35.8785 50.1473 31.5348 47.1907 27.6074 43.2674C23.771 39.4354 20.8657 35.2115 19.4265 31.3741C18.3462 28.4936 17.6213 24.4978 20.3025 21.8198L21.8333 20.2904L28.1656 29.5923L27.0976 30.6596C26.4901 31.2654 26.2991 32.162 26.6023 32.9603C26.8306 33.8963 27.8813 35.8393 28.9413 37.2711C30.5011 39.3781 33.3324 42.291 37.962 44.2043C38.7756 44.5405 39.7033 44.3559 40.3262 43.7341L41.3743 42.6868L50.7339 49.6869L49.8983 50.5214C47.0241 53.3928 42.8412 52.6888 39.8381 51.5927Z" fill="white"/>
<path d="M32.4171 43.4261C31.6451 42.7701 30.3099 41.6419 29.6068 40.9409C27.8824 39.2237 26.0733 37.1421 24.9976 35.6382C24.7678 35.3168 24.3124 35.2365 23.9807 35.4595C23.6489 35.6822 23.5664 36.1235 23.7962 36.445C25.1529 38.3417 27.1461 40.5212 28.559 41.9282C29.3013 42.6686 30.6479 43.8067 31.4533 44.4909C31.7562 44.7482 32.2178 44.72 32.4847 44.4253C32.7508 44.1315 32.7206 43.6839 32.4171 43.4261Z" fill="white"/>
</svg>
