<svg width="71" height="71" viewBox="0 0 71 71" fill="none" xmlns="http://www.w3.org/2000/svg">
<circle cx="35.0141" cy="35.0141" r="34.0141" stroke="white" stroke-width="2"/>
<path d="M22.9672 45.7858H18.6696C18.0765 45.7858 17.5952 45.3044 17.5952 44.7114C17.5952 44.1183 18.0765 43.637 18.6696 43.637H22.9672C23.5602 43.637 24.0416 44.1183 24.0416 44.7114C24.0416 45.3044 23.5602 45.7858 22.9672 45.7858Z" fill="white"/>
<path d="M57.8854 45.7856H55.1993C54.6063 45.7856 54.1249 45.3042 54.1249 44.7112C54.1249 44.1181 54.6063 43.6368 55.1993 43.6368H56.9936L58.4419 35.9182C58.4226 31.9687 55.0489 28.5951 50.9017 28.5951H43.8472L40.4284 43.6368H46.6041C47.1972 43.6368 47.6785 44.1181 47.6785 44.7112C47.6785 45.3042 47.1972 45.7856 46.6041 45.7856H39.0833C38.7567 45.7856 38.4472 45.6373 38.2431 45.3816C38.039 45.128 37.9616 44.7928 38.0347 44.4748L41.9412 27.2843C42.0529 26.7922 42.487 26.4463 42.9898 26.4463H50.9017C56.2329 26.4463 60.5714 30.7847 60.5714 36.1159L58.9404 44.9089C58.8459 45.4181 58.4032 45.7856 57.8854 45.7856Z" fill="white"/>
<path d="M50.9019 50.0832C47.9408 50.0832 45.5298 47.6743 45.5298 44.7111C45.5298 41.7479 47.9408 39.3391 50.9019 39.3391C53.8629 39.3391 56.2739 41.7479 56.2739 44.7111C56.2739 47.6743 53.8629 50.0832 50.9019 50.0832ZM50.9019 41.4879C49.1248 41.4879 47.6787 42.9341 47.6787 44.7111C47.6787 46.4882 49.1248 47.9344 50.9019 47.9344C52.6789 47.9344 54.1251 46.4882 54.1251 44.7111C54.1251 42.9341 52.6789 41.4879 50.9019 41.4879Z" fill="white"/>
<path d="M27.2649 50.0832C24.3038 50.0832 21.8929 47.6743 21.8929 44.7111C21.8929 41.7479 24.3038 39.3391 27.2649 39.3391C30.226 39.3391 32.6369 41.7479 32.6369 44.7111C32.6369 47.6743 30.226 50.0832 27.2649 50.0832ZM27.2649 41.4879C25.4878 41.4879 24.0417 42.9341 24.0417 44.7111C24.0417 46.4882 25.4878 47.9344 27.2649 47.9344C29.042 47.9344 30.4881 46.4882 30.4881 44.7111C30.4881 42.9341 29.042 41.4879 27.2649 41.4879Z" fill="white"/>
<path d="M22.9672 26.4462H14.372C13.7789 26.4462 13.2975 25.9648 13.2975 25.3718C13.2975 24.7787 13.7789 24.2974 14.372 24.2974H22.9672C23.5603 24.2974 24.0416 24.7787 24.0416 25.3718C24.0416 25.9648 23.5603 26.4462 22.9672 26.4462Z" fill="white"/>
<path d="M22.9671 32.893H12.2231C11.63 32.893 11.1487 32.4116 11.1487 31.8185C11.1487 31.2255 11.63 30.7441 12.2231 30.7441H22.9671C23.5602 30.7441 24.0415 31.2255 24.0415 31.8185C24.0415 32.4116 23.5602 32.893 22.9671 32.893Z" fill="white"/>
<path d="M22.9673 39.339H10.0744C9.48133 39.339 9 38.8577 9 38.2646C9 37.6715 9.48133 37.1902 10.0744 37.1902H22.9673C23.5603 37.1902 24.0417 37.6715 24.0417 38.2646C24.0417 38.8577 23.5603 39.339 22.9673 39.339Z" fill="white"/>
<path d="M39.0833 45.7857H31.5624C30.9693 45.7857 30.488 45.3044 30.488 44.7113C30.488 44.1182 30.9693 43.6369 31.5624 43.6369H38.2259L43.108 22.1488H18.6696C18.0765 22.1488 17.5952 21.6675 17.5952 21.0744C17.5952 20.4813 18.0765 20 18.6696 20H44.4553C44.7819 20 45.0913 20.1483 45.2955 20.404C45.4996 20.6575 45.577 20.9928 45.5039 21.3108L40.1319 44.9477C40.0201 45.4398 39.5839 45.7857 39.0833 45.7857Z" fill="white"/>
</svg>
