<svg width="97" height="134" viewBox="0 0 97 134" fill="none" xmlns="http://www.w3.org/2000/svg">
<path d="M95.352 73.639C93.5185 67.2429 90.1512 61.6062 86.8678 55.9172C83.796 50.5859 80.3408 45.3589 81.3434 38.6937C80.5046 38.8102 79.8775 39.1276 79.2583 39.5615C74.5369 42.876 71.8047 47.6851 69.5877 52.8116C68.9926 54.1856 68.7888 53.7598 68.1338 53.0205C66.2963 50.9515 64.8263 48.6253 63.4882 46.2187C59.8972 39.7624 57.4885 32.8802 56.0865 25.6003C54.8642 19.2605 54.293 12.9166 54.972 6.48042C55.1837 4.48768 55.0519 2.47084 55.8109 0C51.1014 3.74442 46.9152 7.08708 42.9447 10.6909C33.9092 18.8828 25.5009 27.6573 18.5705 37.7536C10.5536 49.4328 3.8869 61.7147 1.0029 75.8567C-1.23799 86.8409 0.323844 97.1862 5.21306 107.049C10.0703 116.852 17.508 123.996 27.0268 128.833C27.0308 128.837 27.0348 128.849 27.0348 128.849C27.0348 128.849 28.305 129.58 30.5659 130.488C30.6178 130.508 30.6737 130.532 30.7217 130.553C37.5522 133.273 53.0307 137.463 69.9273 128.849C69.9472 128.841 69.9632 128.829 69.9832 128.817C77.5047 125.109 83.7161 119.661 88.5894 112.526C92.3322 107.045 94.7768 101.007 96.079 94.4141C97.477 87.3752 97.3213 80.5131 95.352 73.639Z" fill="#DE1717"/>
</svg>
