<svg width="29" height="108" viewBox="0 0 29 108" fill="none" xmlns="http://www.w3.org/2000/svg">
<g clip-path="url(#clip0)">
<path d="M15.4395 108C14.8501 107.052 15.6968 106.359 15.9334 105.649C18.237 98.6795 15.7798 93.1298 11.0441 88.1647C8.18431 85.1665 5.31212 82.1807 3.10402 78.6104C-0.992588 71.9833 -0.942781 65.3228 2.70557 58.5538C5.1544 54.0104 8.33788 49.9306 10.7784 45.3748C14.2732 38.8479 13.9038 32.7011 9.72417 26.6294C8.23827 24.4705 7.0097 22.1404 5.95546 19.6933C3.72245 14.5153 4.88876 9.97193 8.11375 5.77938C9.81133 3.5787 11.8202 1.62441 14.3811 0C14.5886 1.97935 13.4721 3.37826 13.0571 4.93168C11.401 11.066 13.9038 15.5717 18.0502 19.6933C21.3997 23.0256 24.8737 26.2577 27.0237 30.6466C30.2985 37.3321 29.1571 43.7462 26.1895 50.0935C24.4504 53.81 21.9683 57.063 19.5901 60.3703C14.763 67.0725 15.0078 73.7831 19.3493 80.6189C20.7481 82.8238 21.8895 85.1873 22.9147 87.6218C25.9653 94.867 23.7157 100.705 18.4445 105.791C17.5646 106.63 16.7137 107.616 15.4395 108Z" fill="white" fill-opacity="0.5"/>
</g>
<defs>
<clipPath id="clip0">
<rect width="29" height="108" fill="white"/>
</clipPath>
</defs>
</svg>
