<svg width="123" height="24" viewBox="0 0 123 24" fill="none" xmlns="http://www.w3.org/2000/svg">
<path d="M10.6033 2.13339C10.9701 1.39015 12.0299 1.39015 12.3967 2.13339L14.6471 6.69312C14.7928 6.98826 15.0743 7.19283 15.4 7.24016L20.432 7.97134C21.2522 8.09053 21.5797 9.0985 20.9862 9.67704L17.345 13.2263C17.1094 13.456 17.0018 13.787 17.0574 14.1114L17.917 19.123C18.0571 19.9399 17.1997 20.5629 16.4661 20.1772L11.9653 17.8111C11.674 17.6579 11.326 17.6579 11.0347 17.8111L6.53394 20.1772C5.80032 20.5629 4.94288 19.9399 5.08299 19.123L5.94255 14.1114C5.99819 13.787 5.89064 13.456 5.65496 13.2263L2.0138 9.67704C1.42028 9.0985 1.74779 8.09053 2.56801 7.97134L7.59997 7.24016C7.92568 7.19283 8.20724 6.98826 8.35291 6.69312L10.6033 2.13339Z" fill="#D18A00"/>
<path d="M35.6033 2.13339C35.9701 1.39015 37.0299 1.39015 37.3967 2.13339L39.6471 6.69312C39.7928 6.98826 40.0743 7.19283 40.4 7.24016L45.432 7.97134C46.2522 8.09053 46.5797 9.0985 45.9862 9.67704L42.345 13.2263C42.1094 13.456 42.0018 13.787 42.0574 14.1114L42.917 19.123C43.0571 19.9399 42.1997 20.5629 41.4661 20.1772L36.9653 17.8111C36.674 17.6579 36.326 17.6579 36.0347 17.8111L31.5339 20.1772C30.8003 20.5629 29.9429 19.9399 30.083 19.123L30.9426 14.1114C30.9982 13.787 30.8906 13.456 30.655 13.2263L27.0138 9.67704C26.4203 9.0985 26.7478 8.09053 27.568 7.97134L32.6 7.24016C32.9257 7.19283 33.2072 6.98826 33.3529 6.69312L35.6033 2.13339Z" fill="#D18A00"/>
<path d="M60.6033 2.13339C60.9701 1.39015 62.0299 1.39015 62.3967 2.13339L64.6471 6.69312C64.7928 6.98826 65.0743 7.19283 65.4 7.24016L70.432 7.97134C71.2522 8.09053 71.5797 9.0985 70.9862 9.67704L67.345 13.2263C67.1094 13.456 67.0018 13.787 67.0574 14.1114L67.917 19.123C68.0571 19.9399 67.1997 20.5629 66.4661 20.1772L61.9653 17.8111C61.674 17.6579 61.326 17.6579 61.0347 17.8111L56.5339 20.1772C55.8003 20.5629 54.9429 19.9399 55.083 19.123L55.9426 14.1114C55.9982 13.787 55.8906 13.456 55.655 13.2263L52.0138 9.67704C51.4203 9.0985 51.7478 8.09053 52.568 7.97134L57.6 7.24016C57.9257 7.19283 58.2072 6.98826 58.3529 6.69312L60.6033 2.13339Z" fill="#D18A00"/>
<path d="M85.6033 2.13339C85.9701 1.39015 87.0299 1.39015 87.3967 2.13339L89.6471 6.69312C89.7928 6.98826 90.0743 7.19283 90.4 7.24016L95.432 7.97134C96.2522 8.09053 96.5797 9.0985 95.9862 9.67704L92.345 13.2263C92.1094 13.456 92.0018 13.787 92.0574 14.1114L92.917 19.123C93.0571 19.9399 92.1997 20.5629 91.4661 20.1772L86.9653 17.8111C86.674 17.6579 86.326 17.6579 86.0347 17.8111L81.5339 20.1772C80.8003 20.5629 79.9429 19.9399 80.083 19.123L80.9426 14.1114C80.9982 13.787 80.8906 13.456 80.655 13.2263L77.0138 9.67704C76.4203 9.0985 76.7478 8.09053 77.568 7.97134L82.6 7.24016C82.9257 7.19283 83.2072 6.98826 83.3529 6.69312L85.6033 2.13339Z" fill="#D18A00"/>
<path d="M110.603 2.13339C110.97 1.39015 112.03 1.39015 112.397 2.13339L114.647 6.69312C114.793 6.98826 115.074 7.19283 115.4 7.24016L120.432 7.97134C121.252 8.09053 121.58 9.0985 120.986 9.67704L117.345 13.2263C117.109 13.456 117.002 13.787 117.057 14.1114L117.917 19.123C118.057 19.9399 117.2 20.5629 116.466 20.1772L111.965 17.8111C111.674 17.6579 111.326 17.6579 111.035 17.8111L106.534 20.1772C105.8 20.5629 104.943 19.9399 105.083 19.123L105.943 14.1114C105.998 13.787 105.891 13.456 105.655 13.2263L102.014 9.67704C101.42 9.0985 101.748 8.09053 102.568 7.97134L107.6 7.24016C107.926 7.19283 108.207 6.98826 108.353 6.69312L110.603 2.13339Z" fill="#D18A00"/>
</svg>
